<?xml version="1.0" encoding="UTF-8"?>
<svg id="Layer_1" xmlns="http://www.w3.org/2000/svg" viewBox="0 0 1500 1500">
  <defs>
    <style>
      .cls-1 {
        fill: #f60;
      }

      .cls-2 {
        fill: #fff;
      }
    </style>
  </defs>
  <rect class="cls-2" x="0" y="0" width="1500" height="1500"/>
  <path class="cls-1" d="M1228,750c0,132-53.5,251.49-140,338-86.51,86.5-206,140-338,140h-478v-237.76c0-112.8,91.44-204.24,204.24-204.24,61.82,0,119.94,25.25,154.67,70.86,4.92,6.46,9.83,13.57,14.77,19.33,35.29,40.59,87.29,66.25,145.29,66.25,106.28,0,192.44-86.16,192.44-192.44s-86.16-192.44-192.44-192.44c-57.99,0-110,25.66-145.29,66.25-5.33,6.12-10.26,12.58-14.77,19.33-37.46,43.39-92.86,70.86-154.67,70.86-112.8,0-204.24-91.44-204.24-204.24v-237.76h478c263.99,0,478,214.01,478,478Z"/>
</svg>