<?xml version="1.0" encoding="UTF-8"?>
<svg xmlns="http://www.w3.org/2000/svg" version="1.1" viewBox="0 0 1500 1500">
  <defs>
    <style>
      .cls-1 {
        fill: #e73c2c;
      }

      .cls-2 {
        fill: #fff;
      }

      .cls-3 {
        fill: #ff0c00;
      }
    </style>
  </defs>
  <!-- Generator: Adobe Illustrator 28.6.0, SVG Export Plug-In . SVG Version: 1.2.0 Build 709)  -->
  <g>
    <g id="Layer_1">
      <g>
        <path class="cls-3" d="M750,1480.5c-98.63,0-194.29-19.31-284.34-57.4-86.99-36.79-165.11-89.47-232.2-156.56-67.09-67.09-119.77-145.22-156.56-232.2-38.09-90.05-57.4-185.71-57.4-284.34s19.31-194.29,57.4-284.34c36.79-86.99,89.47-165.11,156.56-232.2,67.09-67.09,145.22-119.77,232.2-156.56,90.05-38.09,185.71-57.4,284.34-57.4s194.29,19.31,284.34,57.4c86.99,36.79,165.11,89.47,232.2,156.56,67.09,67.09,119.77,145.22,156.56,232.2,38.09,90.05,57.4,185.71,57.4,284.34s-19.31,194.29-57.4,284.34c-36.79,86.99-89.47,165.11-156.56,232.2s-145.22,119.77-232.2,156.56c-90.05,38.09-185.71,57.4-284.34,57.4Z"/>
        <path class="cls-2" d="M750,39c96,0,189.11,18.79,276.74,55.86,42.12,17.82,82.75,39.87,120.76,65.55,37.66,25.44,73.07,54.66,105.25,86.84,32.18,32.18,61.4,67.6,86.84,105.25,25.68,38.01,47.73,78.64,65.55,120.76,37.06,87.63,55.86,180.74,55.86,276.74s-18.79,189.11-55.86,276.74c-17.82,42.12-39.87,82.75-65.55,120.76-25.44,37.66-54.66,73.07-86.84,105.25-32.18,32.18-67.6,61.4-105.25,86.84-38.01,25.68-78.64,47.73-120.76,65.55-87.63,37.06-180.74,55.86-276.74,55.86s-189.11-18.79-276.74-55.86c-42.12-17.82-82.75-39.87-120.76-65.55-37.66-25.44-73.07-54.66-105.25-86.84-32.18-32.18-61.4-67.6-86.84-105.25-25.68-38.01-47.73-78.64-65.55-120.76-37.06-87.63-55.86-180.74-55.86-276.74s18.79-189.11,55.86-276.74c17.82-42.12,39.87-82.75,65.55-120.76,25.44-37.66,54.66-73.07,86.84-105.25,32.18-32.18,67.6-61.4,105.25-86.84,38.01-25.68,78.64-47.73,120.76-65.55,87.63-37.06,180.74-55.86,276.74-55.86h0M750,0h0C335.79,0,0,335.79,0,750h0c0,414.21,335.79,750,750,750h0c414.21,0,750-335.79,750-750h0C1500,335.79,1164.21,0,750,0h0Z"/>
      </g>
      <circle class="cls-2" cx="750" cy="750" r="675"/>
      <path class="cls-1" d="M1303,750c0,138.08-55.96,263.06-146.44,353.56-90.49,90.48-215.48,146.44-353.56,146.44h-500v-248.7c0-117.99,95.65-213.64,213.64-213.64,64.66,0,125.46,26.42,161.79,74.12,5.15,6.76,10.29,14.19,15.45,20.22,36.91,42.45,91.31,69.3,151.97,69.3,111.17,0,201.3-90.13,201.3-201.3s-90.13-201.3-201.3-201.3c-60.66,0-115.06,26.84-151.97,69.3-5.57,6.4-10.73,13.16-15.45,20.22-39.18,45.39-97.13,74.12-161.79,74.12-117.99,0-213.64-95.65-213.64-213.64v-248.7h500c276.14,0,500,223.86,500,500Z"/>
    </g>
  </g>
</svg>